<mxfile host="app.diagrams.net" modified="2024-01-28T15:18:42.047Z" agent="Mozilla/5.0 (X11; Linux x86_64; rv:122.0) Gecko/20100101 Firefox/122.0" etag="FbjCznO4wR5axQXZcLQw" version="22.1.21" type="device">
  <diagram name="Page-1" id="uO0KXDZW5f_WrwYB1d_j">
    <mxGraphModel dx="2261" dy="760" grid="1" gridSize="10" guides="1" tooltips="1" connect="1" arrows="1" fold="1" page="1" pageScale="1" pageWidth="827" pageHeight="1169" math="0" shadow="0">
      <root>
        <mxCell id="0" />
        <mxCell id="1" parent="0" />
        <mxCell id="u2eMPsUzRlnMbxosX0SO-1" value="" style="whiteSpace=wrap;html=1;aspect=fixed;" vertex="1" parent="1">
          <mxGeometry x="210" y="260" width="610" height="610" as="geometry" />
        </mxCell>
        <mxCell id="u2eMPsUzRlnMbxosX0SO-2" value="&lt;div style=&quot;font-size: 13px;&quot;&gt;&lt;font style=&quot;font-size: 29px;&quot;&gt;Docker&lt;/font&gt;&lt;/div&gt;" style="text;html=1;align=center;verticalAlign=middle;resizable=0;points=[];autosize=1;strokeColor=none;fillColor=none;strokeWidth=3;" vertex="1" parent="1">
          <mxGeometry x="240" y="190" width="110" height="50" as="geometry" />
        </mxCell>
        <mxCell id="u2eMPsUzRlnMbxosX0SO-3" value="&lt;font style=&quot;font-size: 25px;&quot;&gt;172.17.0.0/16&lt;/font&gt;" style="text;html=1;align=center;verticalAlign=middle;resizable=0;points=[];autosize=1;strokeColor=none;fillColor=none;" vertex="1" parent="1">
          <mxGeometry x="350" y="195" width="180" height="40" as="geometry" />
        </mxCell>
        <mxCell id="u2eMPsUzRlnMbxosX0SO-4" value="Actor" style="shape=umlActor;verticalLabelPosition=bottom;verticalAlign=top;html=1;outlineConnect=0;" vertex="1" parent="1">
          <mxGeometry x="-180" y="260" width="30" height="60" as="geometry" />
        </mxCell>
        <mxCell id="u2eMPsUzRlnMbxosX0SO-5" style="edgeStyle=orthogonalEdgeStyle;rounded=0;orthogonalLoop=1;jettySize=auto;html=1;" edge="1" parent="1" source="u2eMPsUzRlnMbxosX0SO-6" target="u2eMPsUzRlnMbxosX0SO-9">
          <mxGeometry relative="1" as="geometry" />
        </mxCell>
        <mxCell id="u2eMPsUzRlnMbxosX0SO-6" value="&lt;font style=&quot;font-size: 16px;&quot;&gt;Requete GET à 127.0.0.1:5000&lt;/font&gt;" style="text;html=1;align=center;verticalAlign=middle;resizable=0;points=[];autosize=1;strokeColor=none;fillColor=none;" vertex="1" parent="1">
          <mxGeometry x="-155" y="290" width="250" height="30" as="geometry" />
        </mxCell>
        <mxCell id="u2eMPsUzRlnMbxosX0SO-21" style="edgeStyle=orthogonalEdgeStyle;rounded=0;orthogonalLoop=1;jettySize=auto;html=1;entryX=0;entryY=0.5;entryDx=0;entryDy=0;" edge="1" parent="1" source="u2eMPsUzRlnMbxosX0SO-8" target="u2eMPsUzRlnMbxosX0SO-12">
          <mxGeometry relative="1" as="geometry" />
        </mxCell>
        <mxCell id="u2eMPsUzRlnMbxosX0SO-8" value="App web flask" style="whiteSpace=wrap;html=1;aspect=fixed;" vertex="1" parent="1">
          <mxGeometry x="478" y="420" width="80" height="80" as="geometry" />
        </mxCell>
        <mxCell id="u2eMPsUzRlnMbxosX0SO-20" style="edgeStyle=orthogonalEdgeStyle;rounded=0;orthogonalLoop=1;jettySize=auto;html=1;entryX=0;entryY=0.5;entryDx=0;entryDy=0;" edge="1" parent="1" source="u2eMPsUzRlnMbxosX0SO-9" target="u2eMPsUzRlnMbxosX0SO-8">
          <mxGeometry relative="1" as="geometry">
            <Array as="points">
              <mxPoint x="310" y="460" />
            </Array>
          </mxGeometry>
        </mxCell>
        <mxCell id="u2eMPsUzRlnMbxosX0SO-9" value="NAT" style="rounded=1;whiteSpace=wrap;html=1;" vertex="1" parent="1">
          <mxGeometry x="250" y="320" width="120" height="60" as="geometry" />
        </mxCell>
        <mxCell id="u2eMPsUzRlnMbxosX0SO-10" value="&lt;font style=&quot;font-size: 16px;&quot;&gt;172.17.0.1 &lt;br&gt;&lt;/font&gt;" style="text;html=1;strokeColor=none;fillColor=none;align=center;verticalAlign=middle;whiteSpace=wrap;rounded=0;" vertex="1" parent="1">
          <mxGeometry x="276" y="280" width="80" height="40" as="geometry" />
        </mxCell>
        <mxCell id="u2eMPsUzRlnMbxosX0SO-11" value="IP 172.17.0.2 l&#39;app écoute sur le port 5000 forward depuis 5000" style="text;html=1;strokeColor=none;fillColor=none;align=center;verticalAlign=middle;whiteSpace=wrap;rounded=0;" vertex="1" parent="1">
          <mxGeometry x="460" y="350" width="116" height="50" as="geometry" />
        </mxCell>
        <mxCell id="u2eMPsUzRlnMbxosX0SO-12" value="&lt;div&gt;CT&lt;/div&gt;&lt;div&gt;MongoDB&lt;br&gt;&lt;/div&gt;" style="whiteSpace=wrap;html=1;aspect=fixed;" vertex="1" parent="1">
          <mxGeometry x="660" y="390" width="140" height="140" as="geometry" />
        </mxCell>
        <mxCell id="u2eMPsUzRlnMbxosX0SO-13" value="IP 172.17.0.3 la DB écoute sur le port 27017" style="text;html=1;strokeColor=none;fillColor=none;align=center;verticalAlign=middle;whiteSpace=wrap;rounded=0;" vertex="1" parent="1">
          <mxGeometry x="672" y="340" width="116" height="50" as="geometry" />
        </mxCell>
        <mxCell id="u2eMPsUzRlnMbxosX0SO-22" value="Communique avec la DB" style="text;html=1;strokeColor=none;fillColor=none;align=center;verticalAlign=middle;whiteSpace=wrap;rounded=0;" vertex="1" parent="1">
          <mxGeometry x="576" y="470" width="60" height="30" as="geometry" />
        </mxCell>
      </root>
    </mxGraphModel>
  </diagram>
</mxfile>
